<?xml version="1.0" standalone="no"?>
<!DOCTYPE svg PUBLIC "-//W3C//DTD SVG 20010904//EN"
 "http://www.w3.org/TR/2001/REC-SVG-20010904/DTD/svg10.dtd">
<svg version="1.0" xmlns="http://www.w3.org/2000/svg"
 width="256.000000pt" height="256.000000pt" viewBox="0 0 256.000000 256.000000"
 preserveAspectRatio="xMidYMid meet">

<g transform="translate(0.000000,256.000000) scale(0.100000,-0.100000)"
fill="#000000" stroke="none">
<path d="M1235 2550 c-62 -19 -105 -77 -107 -144 l-1 -46 -143 0 -144 0 0
-133 c0 -117 2 -136 18 -150 17 -15 61 -17 424 -17 380 0 406 1 421 18 14 15
17 42 17 150 l0 132 -143 0 -144 0 -1 44 c-1 102 -100 175 -197 146z"/>
<path d="M1199 1704 c-9 -11 -10 -20 -2 -32 9 -15 42 -17 300 -20 244 -2 292
0 302 12 9 11 10 20 1 35 -10 20 -18 21 -299 21 -251 0 -290 -2 -302 -16z"/>
<path d="M1206 1257 c-13 -10 -16 -20 -12 -35 7 -22 8 -22 300 -22 214 0 295
3 304 12 16 16 15 23 -4 42 -13 14 -54 16 -293 16 -214 0 -281 -3 -295 -13z"/>
<path d="M1206 787 c-13 -10 -16 -20 -12 -35 7 -21 12 -22 165 -22 109 0 161
4 169 12 16 16 15 23 -4 42 -21 21 -290 23 -318 3z"/>
<path d="M1660 785 c-6 -8 -10 -22 -8 -32 3 -15 15 -19 66 -21 82 -4 112 17
76 52 -20 21 -117 22 -134 1z"/>
</g>
</svg>